<!-- The product's own shopify-logo.svg is 30 KB of illustration paths. At the
     32px this chip renders it, a compact bag mark in Shopify's green reads
     identically; swap in the original file if byte-exactness is wanted. -->
<svg width="16" height="18" viewBox="0 0 16 18" fill="none" xmlns="http://www.w3.org/2000/svg">
  <path d="M2.4 3.6 1 16.2c-.05.5.33.9.83.9h12.34c.5 0 .88-.4.83-.9L13.6 3.6a.84.84 0 0 0-.83-.75H3.23a.84.84 0 0 0-.83.75Z" fill="#95BF47"/>
  <path d="M8 17.1h6.17c.5 0 .88-.4.83-.9L13.6 3.6a.84.84 0 0 0-.83-.75H8v14.25Z" fill="#5E8E3E"/>
  <path d="M5.4 6.2V4.3a2.6 2.6 0 0 1 5.2 0v1.9" stroke="#fff" stroke-width="1.3" stroke-linecap="round" fill="none"/>
</svg>
