<svg preserveAspectRatio="xMidYMid meet" width="100%" height="100%" overflow="visible" style="display: block;" viewBox="0 0 21.3333 24" fill="none" xmlns="http://www.w3.org/2000/svg">
<g id="smart" clip-path="url(#clip0_0_219)">
<path id="Vector" d="M4.76603 8.5971L10.6667 5.19422C12.1158 4.35857 13.7595 3.91864 15.4327 3.91864C17.1059 3.91864 18.7497 4.35857 20.1986 5.19422L20.3539 5.28371L11.6465 0.262213C11.3486 0.0904343 11.0107 0 10.6667 0C10.3228 0 9.98489 0.0904343 9.68702 0.262213L9.53167 0.351793C8.08273 1.18747 6.87952 2.38937 6.04297 3.83672C5.20642 5.28407 4.76603 6.92587 4.76603 8.5971Z" fill="url(#paint0_linear_0_219)"/>
<path id="Vector_2" d="M10.6667 5.1942L16.5675 8.59708C18.0165 9.43273 19.2197 10.6347 20.0564 12.0821C20.893 13.5294 21.3334 15.1713 21.3334 16.8426V6.97856C21.3334 6.63504 21.2429 6.29756 21.0709 6.00006C20.899 5.70255 20.6518 5.45548 20.3539 5.28369L20.1986 5.19418C18.7496 4.35853 17.1059 3.9186 15.4327 3.91862C13.7595 3.91862 12.1158 4.35855 10.6667 5.1942Z" fill="url(#paint1_linear_0_219)"/>
<path id="Vector_3" d="M16.5674 8.59711L16.5674 15.4029C16.5674 17.0742 16.127 18.716 15.2904 20.1634C14.4538 21.6107 13.2505 22.8128 11.8015 23.6483L20.3536 18.7164C20.6516 18.5446 20.899 18.2975 21.0709 18C21.2429 17.7025 21.3333 17.365 21.3333 17.0214V16.8426C21.3333 15.1713 20.893 13.5295 20.0563 12.0821C19.2197 10.6347 18.0164 9.43276 16.5674 8.59711Z" fill="url(#paint2_linear_0_219)"/>
<path id="Vector_4" d="M11.8015 23.6482C13.2505 22.8127 14.4538 21.6107 15.2904 20.1634C16.127 18.716 16.5674 17.0742 16.5674 15.4029L10.6667 18.8059C9.21766 19.6414 7.57394 20.0814 5.90073 20.0814C4.22753 20.0814 2.58381 19.6414 1.13476 18.8059L0.979675 18.7163L9.68696 23.7379C9.98485 23.9096 10.3227 24 10.6667 24C11.0106 24 11.3485 23.9096 11.6464 23.7379L11.8015 23.6482Z" fill="url(#paint3_linear_0_219)"/>
<path id="Vector_5" d="M10.6667 18.8059L4.76599 15.4029C3.31695 14.5673 2.11366 13.3654 1.27705 11.918C0.440452 10.4706 1.80893e-05 8.82874 2.03457e-05 7.15744V17.0214C1.1834e-05 17.365 0.0905404 17.7025 0.262507 18C0.434471 18.2975 0.681817 18.5446 0.979676 18.7164L1.13476 18.8059C2.58379 19.6414 4.22753 20.0815 5.90074 20.0815C7.57395 20.0815 9.21766 19.6414 10.6667 18.8059Z" fill="url(#paint4_linear_0_219)"/>
<path id="Vector_6" d="M4.76599 15.4029V8.5971C4.76599 6.92586 5.20638 5.28405 6.04293 3.83672C6.87946 2.38937 8.08267 1.18745 9.53163 0.35178L0.979741 5.2836C0.681901 5.45535 0.434565 5.70238 0.262589 5.99987C0.0906143 6.29736 5.77602e-05 6.63482 2.03451e-05 6.97834V7.1574C1.83478e-05 8.8287 0.440452 10.4705 1.27706 11.9179C2.11366 13.3653 3.31695 14.5672 4.76599 15.4029Z" fill="url(#paint5_linear_0_219)"/>
<path id="Vector_7" fill-rule="evenodd" clip-rule="evenodd" d="M10.5086 15C12.1655 15 13.5086 13.6569 13.5086 12C13.5086 10.3431 12.1655 9 10.5086 9C10.5076 9 10.5066 9 10.5056 9H10.5086V12H7.50859C7.50859 13.6569 8.85173 15 10.5086 15Z" fill="var(--fill-0, #4208E5)"/>
</g>
<defs>
<linearGradient id="paint0_linear_0_219" x1="12.56" y1="0" x2="12.56" y2="8.5971" gradientUnits="userSpaceOnUse">
<stop stop-color="#4208E5"/>
<stop offset="1" stop-color="#C2BEFE"/>
</linearGradient>
<linearGradient id="paint1_linear_0_219" x1="16.0001" y1="3.91862" x2="16.0001" y2="16.8426" gradientUnits="userSpaceOnUse">
<stop stop-color="#C2BEFE"/>
<stop offset="1" stop-color="#4208E5"/>
</linearGradient>
<linearGradient id="paint2_linear_0_219" x1="16.5674" y1="8.59711" x2="16.5674" y2="23.6483" gradientUnits="userSpaceOnUse">
<stop stop-color="#C2BEFE"/>
<stop offset="1" stop-color="#4208E5"/>
</linearGradient>
<linearGradient id="paint3_linear_0_219" x1="8.77355" y1="15.4029" x2="8.77355" y2="24" gradientUnits="userSpaceOnUse">
<stop stop-color="#C2BEFE"/>
<stop offset="1" stop-color="#4208E5"/>
</linearGradient>
<linearGradient id="paint4_linear_0_219" x1="5.33335" y1="7.15744" x2="5.33335" y2="20.0815" gradientUnits="userSpaceOnUse">
<stop stop-color="#4208E5"/>
<stop offset="1" stop-color="#C2BEFE"/>
</linearGradient>
<linearGradient id="paint5_linear_0_219" x1="4.76582" y1="0.35178" x2="4.76582" y2="15.4029" gradientUnits="userSpaceOnUse">
<stop stop-color="#4208E5"/>
<stop offset="1" stop-color="#C2BEFE"/>
</linearGradient>
<clipPath id="clip0_0_219">
<rect width="21.3333" height="24" fill="white"/>
</clipPath>
</defs>
</svg>
