<svg preserveAspectRatio="xMidYMid meet" width="100%" height="100%" overflow="visible" style="display: block;" viewBox="0 0 42.6667 48" fill="none" xmlns="http://www.w3.org/2000/svg">
<g id="smart" clip-path="url(#clip0_0_174)">
<path id="Vector" d="M9.53212 17.1942L21.3336 10.3884C24.2316 8.71714 27.5191 7.83728 30.8655 7.83728C34.2119 7.83728 37.4994 8.71714 40.3973 10.3884L40.7078 10.5674L23.293 0.524426C22.6973 0.180869 22.0215 0 21.3336 0C20.6457 0 19.9699 0.180869 19.3741 0.524426L19.0634 0.703586C16.1655 2.37493 13.7591 4.77874 12.086 7.67344C10.4129 10.5681 9.53212 13.8517 9.53212 17.1942Z" fill="url(#paint0_linear_0_174)"/>
<path id="Vector_2" d="M21.3335 10.3884L33.1349 17.1942C36.033 18.8655 38.4395 21.2694 40.1127 24.1641C41.786 27.0589 42.6668 30.3426 42.6668 33.6852V13.9572C42.6668 13.2701 42.4858 12.5952 42.1419 12.0002C41.798 11.4051 41.3036 10.911 40.7078 10.5674L40.3973 10.3884C37.4993 8.71711 34.2118 7.83724 30.8654 7.83728C27.519 7.83728 24.2316 8.71714 21.3335 10.3884Z" fill="url(#paint1_linear_0_174)"/>
<path id="Vector_3" d="M33.1349 17.1942L33.1348 30.8058C33.1348 34.1484 32.254 37.432 30.5808 40.3268C28.9076 43.2214 26.5011 45.6255 23.603 47.2965L40.7073 37.4328C41.3031 37.0892 41.7979 36.5951 42.1418 36C42.4857 35.405 42.6667 34.7299 42.6667 34.0428V33.6852C42.6667 30.3426 41.7859 27.0589 40.1127 24.1641C38.4394 21.2694 36.0329 18.8655 33.1349 17.1942Z" fill="url(#paint2_linear_0_174)"/>
<path id="Vector_4" d="M23.6031 47.2965C26.5011 45.6255 28.9077 43.2214 30.5808 40.3267C32.254 37.432 33.1349 34.1483 33.1349 30.8058L21.3334 37.6117C18.4353 39.2827 15.1479 40.1629 11.8015 40.1629C8.45507 40.1629 5.16763 39.2827 2.26955 37.6117L1.95937 37.4327L19.3739 47.4757C19.9697 47.8192 20.6455 48 21.3334 48C22.0213 48 22.6971 47.8192 23.2928 47.4757L23.6031 47.2965Z" fill="url(#paint3_linear_0_174)"/>
<path id="Vector_5" d="M21.3334 37.6119L9.53195 30.8059C6.63387 29.1346 4.2273 26.7308 2.55409 23.836C0.880883 20.9412 1.55157e-05 17.6575 2.00284e-05 14.3149V34.0429C3.00498e-06 34.7301 0.18106 35.405 0.524992 36.0001C0.868922 36.5952 1.36361 37.0893 1.95933 37.4328L2.26951 37.6119C5.16756 39.2829 8.45504 40.163 11.8015 40.163C15.1479 40.163 18.4353 39.2829 21.3334 37.6119Z" fill="url(#paint4_linear_0_174)"/>
<path id="Vector_6" d="M9.53195 30.8058V17.1943C9.53195 13.8518 10.4127 10.5682 12.0858 7.6735C13.7589 4.7788 16.1653 2.37496 19.0632 0.703613L1.95946 10.5673C1.36378 10.9108 0.86911 11.4048 0.525158 11.9998C0.181208 12.5948 9.48575e-05 13.2697 2.00272e-05 13.9567V14.3149C1.60326e-05 17.6575 0.880883 20.9411 2.55409 23.8359C4.2273 26.7307 6.63387 29.1345 9.53195 30.8058Z" fill="url(#paint5_linear_0_174)"/>
<path id="Vector_7" fill-rule="evenodd" clip-rule="evenodd" d="M21.0172 30C24.331 30 27.0172 27.3137 27.0172 24C27.0172 20.6863 24.331 18 21.0172 18C21.0152 18 21.0133 18 21.0113 18H21.0172V24H15.0172C15.0172 27.3137 17.7035 30 21.0172 30Z" fill="var(--fill-0, #4208E5)"/>
</g>
<defs>
<linearGradient id="paint0_linear_0_174" x1="25.12" y1="0" x2="25.12" y2="17.1942" gradientUnits="userSpaceOnUse">
<stop stop-color="#4208E5"/>
<stop offset="1" stop-color="#C2BEFE"/>
</linearGradient>
<linearGradient id="paint1_linear_0_174" x1="32.0002" y1="7.83728" x2="32.0002" y2="33.6852" gradientUnits="userSpaceOnUse">
<stop stop-color="#C2BEFE"/>
<stop offset="1" stop-color="#4208E5"/>
</linearGradient>
<linearGradient id="paint2_linear_0_174" x1="33.1349" y1="17.1942" x2="33.1349" y2="47.2965" gradientUnits="userSpaceOnUse">
<stop stop-color="#C2BEFE"/>
<stop offset="1" stop-color="#4208E5"/>
</linearGradient>
<linearGradient id="paint3_linear_0_174" x1="17.5471" y1="30.8058" x2="17.5471" y2="48" gradientUnits="userSpaceOnUse">
<stop stop-color="#C2BEFE"/>
<stop offset="1" stop-color="#4208E5"/>
</linearGradient>
<linearGradient id="paint4_linear_0_174" x1="10.6667" y1="14.3149" x2="10.6667" y2="40.163" gradientUnits="userSpaceOnUse">
<stop stop-color="#4208E5"/>
<stop offset="1" stop-color="#C2BEFE"/>
</linearGradient>
<linearGradient id="paint5_linear_0_174" x1="9.53161" y1="0.703613" x2="9.53161" y2="30.8058" gradientUnits="userSpaceOnUse">
<stop stop-color="#4208E5"/>
<stop offset="1" stop-color="#C2BEFE"/>
</linearGradient>
<clipPath id="clip0_0_174">
<rect width="42.6667" height="48" fill="white"/>
</clipPath>
</defs>
</svg>
