<svg xmlns="http://www.w3.org/2000/svg" xmlns:xlink="http://www.w3.org/1999/xlink" width="16px" height="19px" viewBox="0 0 16 18" version="1.1">
<g id="surface1">
<path style=" stroke:none;fill-rule:nonzero;fill:rgb(0%,0%,0%);fill-opacity:1;" d="M 14.875 6.128906 C 14.714844 4.71875 14.332031 3.5625 12.855469 3.5625 C 12.53125 3.5625 12.152344 3.5625 11.753906 3.5625 C 11.582031 1.566406 9.953125 0 7.960938 0 C 5.972656 0 4.34375 1.570312 4.171875 3.5625 C 3.785156 3.5625 3.425781 3.5625 3.105469 3.5625 C 1.632812 3.5625 1.253906 4.71875 1.085938 6.128906 C 0.808594 8.464844 0 15.398438 0 15.398438 C 0 16.8125 1.199219 17.964844 2.671875 17.964844 L 13.289062 17.964844 C 14.765625 17.964844 15.960938 16.8125 15.960938 15.398438 C 15.960938 15.398438 15.148438 8.464844 14.875 6.128906 Z M 8.042969 1.769531 C 9.386719 1.769531 9.855469 2.484375 10.019531 3.570312 C 8.695312 3.570312 7.234375 3.570312 5.910156 3.570312 C 6.144531 2.484375 6.703125 1.769531 8.042969 1.769531 Z M 8.042969 1.769531 "/>
<path style=" stroke:none;fill-rule:nonzero;fill:rgb(100%,0%,30.980392%);fill-opacity:1;" d="M 9.988281 9.511719 C 10.597656 9.925781 11.339844 10.175781 12.140625 10.175781 L 12.140625 8.691406 C 11.992188 8.691406 11.839844 8.675781 11.6875 8.644531 L 11.6875 9.8125 C 10.886719 9.8125 10.144531 9.566406 9.539062 9.152344 L 9.539062 12.171875 C 9.539062 13.683594 8.257812 14.910156 6.683594 14.910156 C 6.09375 14.910156 5.546875 14.742188 5.09375 14.449219 C 5.617188 14.953125 6.335938 15.273438 7.140625 15.273438 C 8.714844 15.273438 9.996094 14.042969 9.996094 12.535156 Z M 10.546875 8.019531 C 10.238281 7.695312 10.03125 7.273438 9.988281 6.808594 L 9.988281 6.617188 L 9.5625 6.617188 C 9.667969 7.207031 10.03125 7.710938 10.546875 8.019531 Z M 6.085938 13.292969 C 5.910156 13.074219 5.816406 12.8125 5.824219 12.535156 C 5.824219 11.839844 6.40625 11.28125 7.128906 11.28125 C 7.257812 11.28125 7.398438 11.300781 7.523438 11.34375 L 7.523438 9.824219 C 7.371094 9.808594 7.222656 9.792969 7.070312 9.800781 L 7.070312 10.980469 C 6.945312 10.945312 6.808594 10.921875 6.675781 10.921875 C 5.953125 10.921875 5.371094 11.480469 5.371094 12.171875 C 5.363281 12.660156 5.660156 13.082031 6.085938 13.292969 Z M 6.085938 13.292969 "/>
<path style=" stroke:none;fill-rule:nonzero;fill:rgb(100%,100%,100%);fill-opacity:1;" d="M 9.539062 9.152344 C 10.144531 9.566406 10.886719 9.8125 11.6875 9.8125 L 11.6875 8.644531 C 11.242188 8.554688 10.84375 8.324219 10.546875 8.019531 C 10.039062 7.710938 9.667969 7.207031 9.5625 6.617188 L 8.4375 6.617188 L 8.4375 12.535156 C 8.4375 13.226562 7.855469 13.78125 7.132812 13.78125 C 6.707031 13.78125 6.332031 13.585938 6.09375 13.285156 C 5.664062 13.082031 5.371094 12.652344 5.371094 12.167969 C 5.371094 11.472656 5.953125 10.914062 6.675781 10.914062 C 6.8125 10.914062 6.945312 10.933594 7.070312 10.972656 L 7.070312 9.792969 C 5.523438 9.824219 4.273438 11.039062 4.273438 12.535156 C 4.273438 13.28125 4.582031 13.953125 5.089844 14.449219 C 5.539062 14.742188 6.09375 14.910156 6.675781 14.910156 C 8.25 14.910156 9.53125 13.683594 9.53125 12.171875 Z M 9.539062 9.152344 "/>
<path style=" stroke:none;fill-rule:nonzero;fill:rgb(0%,94.901961%,91.764706%);fill-opacity:1;" d="M 11.6875 8.644531 L 11.6875 8.332031 C 11.289062 8.332031 10.886719 8.222656 10.546875 8.019531 C 10.847656 8.335938 11.25 8.554688 11.6875 8.644531 Z M 9.554688 6.617188 C 9.542969 6.5625 9.539062 6.5 9.53125 6.449219 L 9.53125 6.253906 L 7.980469 6.253906 L 7.980469 12.171875 C 7.980469 12.863281 7.398438 13.417969 6.675781 13.417969 C 6.460938 13.417969 6.261719 13.371094 6.085938 13.285156 C 6.324219 13.585938 6.703125 13.78125 7.128906 13.78125 C 7.847656 13.78125 8.433594 13.21875 8.433594 12.535156 L 8.433594 6.617188 Z M 7.070312 9.800781 L 7.070312 9.464844 C 6.941406 9.445312 6.808594 9.441406 6.683594 9.441406 C 5.109375 9.441406 3.828125 10.667969 3.828125 12.179688 C 3.828125 13.128906 4.328125 13.960938 5.09375 14.453125 C 4.59375 13.960938 4.277344 13.285156 4.277344 12.539062 C 4.273438 11.039062 5.523438 9.832031 7.070312 9.800781 Z M 7.070312 9.800781 "/>
</g>
</svg>
